<svg width="49" height="50" viewBox="0 0 49 50" fill="none" xmlns="http://www.w3.org/2000/svg">
<path fill-rule="evenodd" clip-rule="evenodd" d="M33.6548 9.65956L24.4913 4.86169L6.04723 14.5106L1.42447 12.0851L24.4913 0L38.301 7.23403L33.6548 9.65956ZM24.4931 19.3085L42.9255 9.65955L47.5717 12.0851L24.4931 24.1595L10.6952 16.9361L15.3297 14.5106L24.4931 19.3085ZM5.1345 25.8937L0.5 23.4681V37.9149L23.5669 50V45.1489L5.1345 35.4894V25.8937ZM18.9324 28.2658L0.5 18.6169V13.7658L23.5669 25.8403V40.2977L18.9324 37.8615V28.2658ZM39.2301 23.468V18.6169L25.4205 25.8403V49.9999L30.055 47.5743V28.2659L39.2301 23.468ZM43.8546 35.4892V16.1914L48.5008 13.7659V37.9148L34.6912 45.1488V40.2977L43.8546 35.4892Z" fill="#9E9E9E"/>
</svg>
